<?xml version="1.0" standalone="no"?>
<!DOCTYPE svg PUBLIC "-//W3C//DTD SVG 20010904//EN" "http://www.w3.org/TR/2001/REC-SVG-20010904/DTD/svg10.dtd">
<!-- Created using Krita: http://krita.org -->
<svg xmlns="http://www.w3.org/2000/svg" 
    xmlns:xlink="http://www.w3.org/1999/xlink"
    xmlns:krita="http://krita.org/namespaces/svg/krita"
    xmlns:sodipodi="http://sodipodi.sourceforge.net/DTD/sodipodi-0.dtd"
    width="72pt"
    height="72pt"
    viewBox="0 0 72 72">
<defs/>
<path id="shape0" transform="translate(14.8623853211009, 44.256880733945)" fill="none" stroke="#a39e9e" stroke-width="2.88" stroke-linecap="square" stroke-linejoin="miter" stroke-miterlimit="2" d="M1.77636e-15 7.94207L0 0"/><path id="shape1" transform="translate(14.8623853211009, 44.256880733945)" fill="none" stroke="#a39e9e" stroke-width="2.88" stroke-linecap="square" stroke-linejoin="miter" stroke-miterlimit="2" d="M0 0C3.31378 0 7.99815 0 11.3119 0"/><path id="shape2" transform="translate(31.8715596330275, 35.0070640132329)" fill="none" stroke="#a39e9e" stroke-width="2.88" stroke-linecap="square" stroke-linejoin="miter" stroke-miterlimit="2" d="M7.10543e-15 25.8461L0 0"/><path id="shape3" transform="translate(35.3394495412844, 44.256880733945)" fill="none" stroke="#a39e9e" stroke-width="2.88" stroke-linecap="square" stroke-linejoin="miter" stroke-miterlimit="2" d="M0 0L13.5423 0"/><path id="shape4" transform="translate(48.8817408441936, 44.256880733945)" fill="none" stroke="#a39e9e" stroke-width="2.88" stroke-linecap="square" stroke-linejoin="miter" stroke-miterlimit="2" d="M0 0L0 12.3864"/><path id="shape5" transform="matrix(1 0 0 -1 39.1376146788991 50.6146788990826)" fill="none" stroke="#a39e9e" stroke-width="2.88" stroke-linecap="square" stroke-linejoin="miter" stroke-miterlimit="2" d="M0 0L0 6.3578"/><path id="shape6" transform="translate(24.605504587156, 50.6146788990826)" fill="none" stroke="#a39e9e" stroke-width="2.88" stroke-linecap="square" stroke-linejoin="miter" stroke-miterlimit="2" d="M7.26606 0L0 0"/><path id="shape7" transform="translate(24.605504587156, 50.6146788990826)" fill="none" stroke="#a39e9e" stroke-width="2.88" stroke-linecap="square" stroke-linejoin="miter" stroke-miterlimit="2" d="M0 0L0 4.38859"/><path id="shape8" transform="translate(27.6770901510004, 25.7502275976737)" sodipodi:type="arc" sodipodi:rx="4.19416513761468" sodipodi:ry="4.2269320527523" sodipodi:cx="4.19446239818604" sodipodi:cy="4.22694298718871" sodipodi:start="2.1992638056869" sodipodi:end="0.991546312164067" sodipodi:arc-type="chord" d="M6.49033 7.76435C8.02679 6.75151 8.73102 4.84929 8.22838 3.0697C7.72573 1.2901 6.13305 0.0468194 4.29767 0.00129076C2.46228 -0.0442379 0.810832 1.11857 0.221923 2.87109C-0.366985 4.6236 0.243539 6.55844 1.72869 7.64623Z" fill="none" stroke="#a39e9e" stroke-width="2.88" stroke-linecap="square" stroke-linejoin="bevel"/>
</svg>
